# xmcd CD Database Entry
#
# Track frame offsets:
# 150
# 19725
# 53925
# 72525
# 94575
# 138225
# 162075
# 180525
#
# Disc length: 2680 seconds
#
# Revision: 1
# Processed by: cddbd v1.4b42PL1 Copyright (c) Steve Scherf et al.
# Submitted via: tcd 2.0b
#
DISCID=650a7608
DTITLE=Billy Cobham - The Best Of Billy Cobham
DYEAR=1900
DGENRE=
TTITLE0=Quadrant
TTITLE1=Snoopy's Search - Red Baron
TTITLE2=Spanish Moss- "A Sound Portrait"
TTITLE3=Moon Germs
TTITLE4=Stratus
TTITLE5=The Pleasant Pheasant
TTITLE6=Solo - Panhandler
TTITLE7=Do what cha wanna
EXTD=
EXTT0=
EXTT1=
EXTT2=
EXTT3=
EXTT4=
EXTT5=
EXTT6=
EXTT7=
PLAYORDER=
